<?xml version="1.0" encoding="us-ascii" standalone="no"?><svg xmlns="http://www.w3.org/2000/svg" xmlns:xlink="http://www.w3.org/1999/xlink" contentStyleType="text/css" height="563px" preserveAspectRatio="none" style="width:664px;height:563px;background:#FFFFFF;" version="1.1" viewBox="0 0 664 563" width="664px" zoomAndPan="magnify"><defs/><g><!--cluster WebSzerver--><g id="cluster_WebSzerver"><rect fill="#D3D3D3" height="372" rx="3.5" ry="3.5" style="stroke:#696969;stroke-width:1.0;stroke-dasharray:7.0,7.0;" width="195" x="426.2286" y="185.7246"/><path d="M530.2286,185.7246 L530.2286,195.0215 L520.2286,205.0215 L426.2286,205.0215 " fill="none" style="stroke:#696969;stroke-width:1.0;stroke-dasharray:7.0,7.0;"/><text fill="#000000" font-family="sans-serif" font-size="14" font-weight="bold" lengthAdjust="spacing" textLength="94" x="429.2286" y="199.7197">WebSzerver</text></g><!--entity RaspberryPi--><g id="elem_RaspberryPi"><polygon fill="#F1F1F1" points="469.7286,238.7246,479.7286,228.7246,596.7286,228.7246,596.7286,265.0215,586.7286,275.0215,469.7286,275.0215,469.7286,238.7246" style="stroke:#181818;stroke-width:0.5;"/><line style="stroke:#181818;stroke-width:0.5;" x1="586.7286" x2="596.7286" y1="238.7246" y2="228.7246"/><line style="stroke:#181818;stroke-width:0.5;" x1="469.7286" x2="586.7286" y1="238.7246" y2="238.7246"/><line style="stroke:#181818;stroke-width:0.5;" x1="586.7286" x2="586.7286" y1="238.7246" y2="275.0215"/><text fill="#000000" font-family="sans-serif" font-size="14" lengthAdjust="spacing" textLength="87" x="484.7286" y="261.7197">RaspberryPi</text></g><!--entity Laravel--><g id="elem_Laravel"><polygon fill="#FF0000" points="487.7286,376.7246,497.7286,366.7246,578.7286,366.7246,578.7286,403.0215,568.7286,413.0215,487.7286,413.0215,487.7286,376.7246" style="stroke:#181818;stroke-width:0.5;"/><line style="stroke:#181818;stroke-width:0.5;" x1="568.7286" x2="578.7286" y1="376.7246" y2="366.7246"/><line style="stroke:#181818;stroke-width:0.5;" x1="487.7286" x2="568.7286" y1="376.7246" y2="376.7246"/><line style="stroke:#181818;stroke-width:0.5;" x1="568.7286" x2="568.7286" y1="376.7246" y2="413.0215"/><text fill="#000000" font-family="sans-serif" font-size="14" lengthAdjust="spacing" textLength="51" x="502.7286" y="399.7197">Laravel</text></g><!--entity MySQL--><g id="elem_MySQL"><path d="M499.2286,498.7246 C499.2286,488.7246 533.2286,488.7246 533.2286,488.7246 C533.2286,488.7246 567.2286,488.7246 567.2286,498.7246 L567.2286,524.0215 C567.2286,534.0215 533.2286,534.0215 533.2286,534.0215 C533.2286,534.0215 499.2286,534.0215 499.2286,524.0215 L499.2286,498.7246 " fill="#ADD8E6" style="stroke:#454645;stroke-width:0.5;"/><path d="M499.2286,498.7246 C499.2286,508.7246 533.2286,508.7246 533.2286,508.7246 C533.2286,508.7246 567.2286,508.7246 567.2286,498.7246 " fill="none" style="stroke:#454645;stroke-width:0.5;"/><text fill="#454645" font-family="sans-serif" font-size="14" lengthAdjust="spacing" textLength="48" x="509.2286" y="525.7197">MySQL</text></g><!--entity {}API--><g id="elem_{}API"><path d="M264.2345,15.7097 C267.7209,9.6085 273.8728,9.6947 277.7601,15.2444 C279.445,7.5451 285.8193,7.4949 290.6716,11.8526 C296.0911,6.3755 303.3806,6 306.0777,14.792 C310.3471,7.5234 315.512,8.1633 319.6721,14.8981 C329.1876,18.7389 329.8438,26.2114 321.3442,31.8312 C327.9551,37.3755 325.3455,42.9082 318.5468,45.7591 C315.8276,53.4046 310.2604,55.8599 304.0783,49.2815 C301.1009,55.546 296.9462,56.5346 291.3969,52.4255 C285.4655,56.9653 280.8859,56.6657 277.8495,49.1675 C272.8541,56.5352 265.8539,54.4802 263.0309,46.9995 C251.6965,45.8599 250.0275,40.1426 254.8779,30.8382 C249.672,22.0013 255.2004,15.7396 264.2345,15.7097 " fill="#ADD8E6" style="stroke:#181818;stroke-width:0.5;"/><text fill="#000000" font-family="sans-serif" font-size="14" lengthAdjust="spacing" textLength="41" x="269.7286" y="34.7197">{}API</text></g><!--entity Felhaszn?l?--><g id="elem_Felhaszn&#225;l&#243;"><ellipse cx="267.2286" cy="360.2246" fill="#454645" rx="8" ry="8" style="stroke:#454645;stroke-width:0.5;"/><path d="M267.2286,368.2246 L267.2286,395.2246 M254.2286,376.2246 L280.2286,376.2246 M267.2286,395.2246 L254.2286,410.2246 M267.2286,395.2246 L280.2286,410.2246 " fill="none" style="stroke:#454645;stroke-width:0.5;"/><text fill="#454645" font-family="sans-serif" font-size="14" lengthAdjust="spacing" textLength="83" x="225.7286" y="424.7197">Felhaszn&#225;l&#243;</text></g><!--entity nodeMCU--><g id="elem_nodeMCU"><polygon fill="#F1F1F1" points="65.7284,238.7246,75.7284,228.7246,172.7284,228.7246,172.7284,265.0215,162.7284,275.0215,65.7284,275.0215,65.7284,238.7246" style="stroke:#181818;stroke-width:0.5;"/><line style="stroke:#181818;stroke-width:0.5;" x1="162.7284" x2="172.7284" y1="238.7246" y2="228.7246"/><line style="stroke:#181818;stroke-width:0.5;" x1="65.7284" x2="162.7284" y1="238.7246" y2="238.7246"/><line style="stroke:#181818;stroke-width:0.5;" x1="162.7284" x2="162.7284" y1="238.7246" y2="275.0215"/><text fill="#000000" font-family="sans-serif" font-size="14" lengthAdjust="spacing" textLength="67" x="80.7284" y="261.7197">nodeMCU</text></g><!--entity Szenzor--><g id="elem_Szenzor"><ellipse cx="91.2284" cy="381.7246" fill="#FFE552" rx="12" ry="12" style="stroke:#454645;stroke-width:0.5;"/><line style="stroke:#454645;stroke-width:0.5;" x1="79.2284" x2="103.2284" y1="395.7246" y2="395.7246"/><text fill="#454645" font-family="sans-serif" font-size="14" lengthAdjust="spacing" textLength="58" x="62.2284" y="410.7197">Szenzor</text></g><!--link WebSzerver to Felhaszn?l?--><g id="link_WebSzerver_Felhaszn&#225;l&#243;"><path d="M426.1878,255.7177 C426.0136,255.7851 425.8369,255.8536 425.6578,255.9232 C424.9413,256.2015 424.1861,256.4973 423.3944,256.8102 C417.0611,259.3131 408.396,262.9108 398.6136,267.4487 C379.0489,276.5246 355.0151,289.3616 336.2286,304.7246 C321.2716,316.9556 307.2426,332.8376 295.7916,347.4946 " fill="none" id="WebSzerver-to-Felhaszn&#225;l&#243;" style="stroke:#454645;stroke-width:1.0;"/><polygon fill="#454645" points="292.6316,351.5916,301.2964,346.9095,295.6859,347.633,294.9625,342.0226,292.6316,351.5916" style="stroke:#454645;stroke-width:1.0;"/><text fill="#000000" font-family="sans-serif" font-size="13" lengthAdjust="spacing" textLength="115" x="337.2286" y="317.7915">adat megjelen&#237;t&#233;s</text></g><!--link Felhaszn?l? to WebSzerver--><g id="link_Felhaszn&#225;l&#243;_WebSzerver"><path d="M225.7146,361.1626 C205.9116,344.6096 189.4336,323.2376 204.2286,304.7246 C220.3296,284.5766 276.2984,271.6649 328.9896,263.747 C355.3352,259.7881 380.8615,257.0776 400.1752,255.3353 C409.8321,254.4641 417.9358,253.835 423.8122,253.4129 C424.5468,253.3602 425.2465,253.3106 425.9102,253.2643 " fill="none" id="Felhaszn&#225;l&#243;-to-WebSzerver" style="stroke:#454645;stroke-width:1.0;"/><polygon fill="#454645" points="425.9102,253.2643,416.6533,249.9012,420.9223,253.6127,417.2108,257.8818,425.9102,253.2643" style="stroke:#454645;stroke-width:1.0;"/><text fill="#000000" font-family="sans-serif" font-size="13" lengthAdjust="spacing" textLength="79" x="205.2286" y="317.7915">adat lek&#233;r&#233;s</text></g><!--reverse link {}API to WebSzerver--><g id="link_{}API_WebSzerver"><path d="M330.5466,49.9776 C355.8456,64.1306 387.0166,85.7516 405.2286,113.7246 C413.5854,126.5604 419.5853,141.3756 423.8823,156.4186 C426.0308,163.9401 427.7536,171.5185 429.1324,178.935 C429.4771,180.7891 429.8003,182.6331 430.1032,184.4635 C430.1411,184.6923 430.1787,184.9209 430.2159,185.1493 " fill="none" id="{}API-backto-WebSzerver" style="stroke:#454645;stroke-width:1.0;"/><polygon fill="#454645" points="325.8946,47.4216,331.8576,55.2602,330.2771,49.8286,335.7087,48.2481,325.8946,47.4216" style="stroke:#454645;stroke-width:1.0;"/><text fill="#000000" font-family="sans-serif" font-size="13" lengthAdjust="spacing" textLength="240" x="416.2286" y="126.7915">JSON response a Laravel controllerb&#337;l</text></g><!--link {}API to WebSzerver--><g id="link_{}API_WebSzerver"><path d="M304.8286,53.0296 C322.8471,80.5581 354.4756,128.8796 381.9517,170.8572 C395.6898,191.8461 408.3898,211.2489 417.8313,225.6737 C420.1917,229.2799 422.3485,232.5749 424.2669,235.5058 C424.7465,236.2386 425.2112,236.9486 425.6604,237.6349 C425.7728,237.8065 425.8841,237.9767 425.9945,238.1453 " fill="none" id="{}API-to-WebSzerver" style="stroke:#454645;stroke-width:1.0;"/><polygon fill="#454645" points="425.9945,238.1453,424.4124,228.4243,423.2562,233.9618,417.7188,232.8056,425.9945,238.1453" style="stroke:#454645;stroke-width:1.0;"/><text fill="#000000" font-family="sans-serif" font-size="13" lengthAdjust="spacing" textLength="40" x="356.2286" y="126.7915">status</text></g><!--reverse link {}API to nodeMCU--><g id="link_{}API_nodeMCU"><path d="M249.0776,30.3396 C190.2316,32.2926 83.7005,45.6776 34.2284,113.7246 C6,152.5516 53.7409,200.8416 88.3328,228.4896 " fill="none" id="{}API-backto-nodeMCU" style="stroke:#454645;stroke-width:1.0;"/><polygon fill="#454645" points="254.2726,30.1926,245.163,26.4488,249.2746,30.3341,245.3894,34.4456,254.2726,30.1926" style="stroke:#454645;stroke-width:1.0;"/><text fill="#000000" font-family="sans-serif" font-size="13" lengthAdjust="spacing" textLength="124" x="35.2284" y="126.7915">HTTP POST request</text></g><!--link {}API to nodeMCU--><g id="link_{}API_nodeMCU"><path d="M272.8906,53.0296 C241.0586,93.9846 173.4536,180.9606 139.5326,224.6016 " fill="none" id="{}API-to-nodeMCU" style="stroke:#454645;stroke-width:1.0;"/><polygon fill="#454645" points="136.3576,228.6876,145.0394,224.0372,139.4264,224.7402,138.7235,219.1271,136.3576,228.6876" style="stroke:#454645;stroke-width:1.0;"/><text fill="#000000" font-family="sans-serif" font-size="13" lengthAdjust="spacing" textLength="103" x="226.2286" y="126.7915">response status</text></g><!--link nodeMCU to WebSzerver--><g id="link_nodeMCU_WebSzerver"><path d="M173.0206,251.7246 C216.5991,251.7246 279.2454,251.7246 332.2631,251.7246 C358.772,251.7246 382.8737,251.7246 400.9813,251.7246 C410.0351,251.7246 417.5904,251.7246 423.1987,251.7246 C423.8998,251.7246 424.5704,251.7246 425.2097,251.7246 C425.5294,251.7246 425.8412,251.7246 426.1451,251.7246 " fill="none" id="nodeMCU-to-WebSzerver" style="stroke:#454645;stroke-width:1.0;"/><polygon fill="#454645" points="426.1451,251.7246,417.1451,247.7246,421.1451,251.7246,417.1451,255.7246,426.1451,251.7246" style="stroke:#454645;stroke-width:1.0;"/><text fill="#000000" font-family="sans-serif" font-size="13" lengthAdjust="spacing" textLength="82" x="262.2986" y="244.7915">adat k&#252;ld&#233;se</text></g><!--reverse link nodeMCU to Szenzor--><g id="link_nodeMCU_Szenzor"><path d="M99.8322,279.0616 C95.0902,286.9276 90.6777,295.8326 88.2284,304.7246 C82.7254,324.7016 84.2504,348.3616 86.6998,365.4726 " fill="none" id="nodeMCU-backto-Szenzor" style="stroke:#454645;stroke-width:1.0;"/><polygon fill="#454645" points="102.4902,274.8056,94.3301,280.3203,99.8416,279.0465,101.1155,284.5581,102.4902,274.8056" style="stroke:#454645;stroke-width:1.0;"/><text fill="#000000" font-family="sans-serif" font-size="13" lengthAdjust="spacing" textLength="74" x="89.2284" y="317.7915">adat k&#252;ld&#233;s</text></g><!--link RaspberryPi to Laravel--><g id="link_RaspberryPi_Laravel"><path d="M523.5186,274.8776 C519.7336,298.4886 519.4826,335.9026 522.7656,361.3426 " fill="none" id="RaspberryPi-to-Laravel" style="stroke:#454645;stroke-width:1.0;"/><polygon fill="#454645" points="523.5196,366.5806,526.1959,357.1024,522.8069,361.6317,518.2776,358.2427,523.5196,366.5806" style="stroke:#454645;stroke-width:1.0;"/></g><!--reverse link RaspberryPi to Laravel--><g id="link_RaspberryPi_Laravel"><path d="M544.3076,280.1166 C547.7826,305.5606 547.5166,342.9736 543.5086,366.5806 " fill="none" id="RaspberryPi-backto-Laravel" style="stroke:#454645;stroke-width:1.0;"/><polygon fill="#454645" points="543.5096,274.8776,540.91,284.3772,544.2623,279.8206,548.8188,283.1729,543.5096,274.8776" style="stroke:#454645;stroke-width:1.0;"/></g><!--link Laravel to MySQL--><g id="link_Laravel_MySQL"><path d="M523.0516,412.9216 C519.8626,432.8336 519.6376,462.1016 522.3756,483.3349 " fill="none" id="Laravel-to-MySQL" style="stroke:#454645;stroke-width:1.0;"/><polygon fill="#454645" points="523.1356,488.5494,525.796,479.0667,522.4146,483.6017,517.8796,480.2203,523.1356,488.5494" style="stroke:#454645;stroke-width:1.0;"/></g><!--reverse link Laravel to MySQL--><g id="link_Laravel_MySQL"><path d="M544.7586,417.9036 C547.6416,439.2996 547.3596,468.7196 543.9146,488.5494 " fill="none" id="Laravel-backto-MySQL" style="stroke:#454645;stroke-width:1.0;"/><polygon fill="#454645" points="544.0046,412.9216,541.3973,422.4191,544.7533,417.8652,549.3071,421.2212,544.0046,412.9216" style="stroke:#454645;stroke-width:1.0;"/></g><!--SRC=[RL6zJiCm4DxlAOvsBWzG92I4X02rD90YPgS-cb3NBcUdAAtw43m2OmScLhQ8zy9faYOHUF1WVtzttucBQKcuJY8Msi5CcLHYRxkx26vws5V9F7QHIWd4p1d6ArAni1kTVwZy2xIHXCKrldm4qYvn6OORqXl30CyilEuJHVw5ryIbrfmfErE9fbCfR4noMuey2BkAY3aBal9X95YiIM6VIO8KJaJ24ewpy7xKJhM3nW07qhpfmNatv125f-EIvY-aIEUVBjzRw43GSreo5KFH8jzp0Uvuf2kFhlSpnDjmSeTCTcMqpoUEkMT6EpPA4KS_xmfgme2xNbx1Ek5IRrBjyU3GiRYUJWCC9k7K-xocP5sZLW1hth29yKVI7ovszk-WY_nRIJyd0LJbLLCsoXqSGAkjuzAhmQ5UG2dHxlNuKp4EPK9PQOck4By0]--></g></svg>