<?xml version="1.0" encoding="us-ascii" standalone="no"?><svg xmlns="http://www.w3.org/2000/svg" xmlns:xlink="http://www.w3.org/1999/xlink" contentStyleType="text/css" height="563px" preserveAspectRatio="none" style="width:716px;height:563px;background:#FFFFFF;" version="1.1" viewBox="0 0 716 563" width="716px" zoomAndPan="magnify"><defs/><g><!--cluster WebServer--><g id="cluster_WebServer"><rect fill="#D3D3D3" height="372" rx="3.5" ry="3.5" style="stroke:#696969;stroke-width:1.0;stroke-dasharray:7.0,7.0;" width="195" x="427.104" y="185.7246"/><path d="M522.104,185.7246 L522.104,195.0215 L512.104,205.0215 L427.104,205.0215 " fill="none" style="stroke:#696969;stroke-width:1.0;stroke-dasharray:7.0,7.0;"/><text fill="#000000" font-family="sans-serif" font-size="14" font-weight="bold" lengthAdjust="spacing" textLength="85" x="430.104" y="199.7197">WebServer</text></g><!--entity RaspberryPi--><g id="elem_RaspberryPi"><polygon fill="#F1F1F1" points="470.604,238.7246,480.604,228.7246,597.604,228.7246,597.604,265.0215,587.604,275.0215,470.604,275.0215,470.604,238.7246" style="stroke:#181818;stroke-width:0.5;"/><line style="stroke:#181818;stroke-width:0.5;" x1="587.604" x2="597.604" y1="238.7246" y2="228.7246"/><line style="stroke:#181818;stroke-width:0.5;" x1="470.604" x2="587.604" y1="238.7246" y2="238.7246"/><line style="stroke:#181818;stroke-width:0.5;" x1="587.604" x2="587.604" y1="238.7246" y2="275.0215"/><text fill="#000000" font-family="sans-serif" font-size="14" lengthAdjust="spacing" textLength="87" x="485.604" y="261.7197">RaspberryPi</text></g><!--entity Laravel--><g id="elem_Laravel"><polygon fill="#FF0000" points="488.604,376.7246,498.604,366.7246,579.604,366.7246,579.604,403.0215,569.604,413.0215,488.604,413.0215,488.604,376.7246" style="stroke:#181818;stroke-width:0.5;"/><line style="stroke:#181818;stroke-width:0.5;" x1="569.604" x2="579.604" y1="376.7246" y2="366.7246"/><line style="stroke:#181818;stroke-width:0.5;" x1="488.604" x2="569.604" y1="376.7246" y2="376.7246"/><line style="stroke:#181818;stroke-width:0.5;" x1="569.604" x2="569.604" y1="376.7246" y2="413.0215"/><text fill="#000000" font-family="sans-serif" font-size="14" lengthAdjust="spacing" textLength="51" x="503.604" y="399.7197">Laravel</text></g><!--entity MySQL--><g id="elem_MySQL"><path d="M500.104,498.7246 C500.104,488.7246 534.104,488.7246 534.104,488.7246 C534.104,488.7246 568.104,488.7246 568.104,498.7246 L568.104,524.0215 C568.104,534.0215 534.104,534.0215 534.104,534.0215 C534.104,534.0215 500.104,534.0215 500.104,524.0215 L500.104,498.7246 " fill="#ADD8E6" style="stroke:#454645;stroke-width:0.5;"/><path d="M500.104,498.7246 C500.104,508.7246 534.104,508.7246 534.104,508.7246 C534.104,508.7246 568.104,508.7246 568.104,498.7246 " fill="none" style="stroke:#454645;stroke-width:0.5;"/><text fill="#454645" font-family="sans-serif" font-size="14" lengthAdjust="spacing" textLength="48" x="510.104" y="525.7197">MySQL</text></g><!--entity {}API--><g id="elem_{}API"><path d="M265.1099,15.7097 C268.5963,9.6085 274.7482,9.6947 278.6355,15.2444 C280.3204,7.5451 286.6947,7.4949 291.547,11.8526 C296.9665,6.3755 304.256,6 306.9531,14.792 C311.2225,7.5234 316.3874,8.1633 320.5475,14.8981 C330.063,18.7389 330.7192,26.2114 322.2196,31.8312 C328.8305,37.3755 326.2209,42.9082 319.4222,45.7591 C316.703,53.4046 311.1358,55.8599 304.9537,49.2815 C301.9763,55.546 297.8216,56.5346 292.2723,52.4255 C286.3409,56.9653 281.7613,56.6657 278.7249,49.1675 C273.7295,56.5352 266.7293,54.4802 263.9063,46.9995 C252.5719,45.8599 250.9029,40.1426 255.7533,30.8382 C250.5474,22.0013 256.0758,15.7396 265.1099,15.7097 " fill="#ADD8E6" style="stroke:#181818;stroke-width:0.5;"/><text fill="#000000" font-family="sans-serif" font-size="14" lengthAdjust="spacing" textLength="41" x="270.604" y="34.7197">{}API</text></g><!--entity User--><g id="elem_User"><ellipse cx="304.104" cy="360.2246" fill="#454645" rx="8" ry="8" style="stroke:#454645;stroke-width:0.5;"/><path d="M304.104,368.2246 L304.104,395.2246 M291.104,376.2246 L317.104,376.2246 M304.104,395.2246 L291.104,410.2246 M304.104,395.2246 L317.104,410.2246 " fill="none" style="stroke:#454645;stroke-width:0.5;"/><text fill="#454645" font-family="sans-serif" font-size="14" lengthAdjust="spacing" textLength="31" x="288.604" y="424.7197">User</text></g><!--entity nodeMCU--><g id="elem_nodeMCU"><polygon fill="#F1F1F1" points="76.6043,238.7246,86.6043,228.7246,183.6043,228.7246,183.6043,265.0215,173.6043,275.0215,76.6043,275.0215,76.6043,238.7246" style="stroke:#181818;stroke-width:0.5;"/><line style="stroke:#181818;stroke-width:0.5;" x1="173.6043" x2="183.6043" y1="238.7246" y2="228.7246"/><line style="stroke:#181818;stroke-width:0.5;" x1="76.6043" x2="173.6043" y1="238.7246" y2="238.7246"/><line style="stroke:#181818;stroke-width:0.5;" x1="173.6043" x2="173.6043" y1="238.7246" y2="275.0215"/><text fill="#000000" font-family="sans-serif" font-size="14" lengthAdjust="spacing" textLength="67" x="91.6043" y="261.7197">nodeMCU</text></g><!--entity Sensor--><g id="elem_Sensor"><ellipse cx="113.1043" cy="381.7246" fill="#FFE552" rx="12" ry="12" style="stroke:#454645;stroke-width:0.5;"/><line style="stroke:#454645;stroke-width:0.5;" x1="101.1043" x2="125.1043" y1="395.7246" y2="395.7246"/><text fill="#454645" font-family="sans-serif" font-size="14" lengthAdjust="spacing" textLength="49" x="88.6043" y="410.7197">Sensor</text></g><!--link WebServer to User--><g id="link_WebServer_User"><path d="M427.0564,258.8634 C426.9921,258.9133 426.9273,258.9636 426.8623,259.014 C426.7323,259.115 426.6009,259.217 426.4684,259.3201 C425.9381,259.7323 425.388,260.1611 424.8192,260.6059 C423.6817,261.4953 422.4697,262.4482 421.1937,263.4584 C418.6418,265.4788 415.8337,267.7282 412.8526,270.1569 C400.9285,279.8716 386.2375,292.4551 374.104,304.7246 C355.647,323.3896 336.705,346.3996 323.188,363.6146 " fill="none" id="WebServer-to-User" style="stroke:#454645;stroke-width:1.0;"/><polygon fill="#454645" points="319.872,367.8596,328.5634,363.2271,322.9489,363.9185,322.2575,358.304,319.872,367.8596" style="stroke:#454645;stroke-width:1.0;"/><text fill="#000000" font-family="sans-serif" font-size="13" lengthAdjust="spacing" textLength="78" x="375.104" y="317.7915">display data</text></g><!--link User to WebServer--><g id="link_User_WebServer"><path d="M288.308,379.9086 C262.93,364.6236 217.967,332.2016 239.104,304.7246 C252.6275,287.1456 300.3195,274.2741 345.2694,265.7346 C367.7443,261.4649 389.5337,258.2781 406.0238,256.1274 C414.2688,255.0521 421.189,254.2358 426.2076,253.6726 C426.3644,253.655 426.5194,253.6376 426.6725,253.6205 " fill="none" id="User-to-WebServer" style="stroke:#454645;stroke-width:1.0;"/><polygon fill="#454645" points="426.6725,253.6205,417.284,250.6446,421.7034,254.1757,418.1723,258.5951,426.6725,253.6205" style="stroke:#454645;stroke-width:1.0;"/><text fill="#000000" font-family="sans-serif" font-size="13" lengthAdjust="spacing" textLength="82" x="240.104" y="317.7915">request data</text></g><!--reverse link {}API to WebServer--><g id="link_{}API_WebServer"><path d="M331.422,49.9776 C356.721,64.1306 387.893,85.7516 406.104,113.7246 C414.4608,126.5604 420.4607,141.3756 424.7579,156.4186 C426.9064,163.9401 428.6292,171.5185 430.0081,178.935 C430.3528,180.7891 430.676,182.6331 430.979,184.4635 C431.0169,184.6923 431.0544,184.9209 431.0917,185.1493 " fill="none" id="{}API-backto-WebServer" style="stroke:#454645;stroke-width:1.0;"/><polygon fill="#454645" points="326.771,47.4216,332.732,55.2617,331.1529,49.8297,336.5849,48.2506,326.771,47.4216" style="stroke:#454645;stroke-width:1.0;"/><text fill="#000000" font-family="sans-serif" font-size="13" lengthAdjust="spacing" textLength="291" x="417.104" y="126.7915">Return JSON response from Laravel controller</text></g><!--link {}API to WebServer--><g id="link_{}API_WebServer"><path d="M305.704,53.0296 C323.7225,80.5581 355.351,128.8796 382.8273,170.8572 C396.5654,191.8461 409.2654,211.2489 418.7072,225.6737 C421.0676,229.2799 423.2244,232.5749 425.1428,235.5058 C425.6224,236.2386 426.0871,236.9486 426.5364,237.6349 C426.6487,237.8065 426.7601,237.9767 426.8705,238.1453 " fill="none" id="{}API-to-WebServer" style="stroke:#454645;stroke-width:1.0;"/><polygon fill="#454645" points="426.8705,238.1453,425.2883,228.4244,424.1322,233.9618,418.5947,232.8057,426.8705,238.1453" style="stroke:#454645;stroke-width:1.0;"/><text fill="#000000" font-family="sans-serif" font-size="13" lengthAdjust="spacing" textLength="40" x="357.104" y="126.7915">status</text></g><!--reverse link {}API to nodeMCU--><g id="link_{}API_nodeMCU"><path d="M249.953,30.3396 C191.108,32.2926 84.5764,45.6776 35.1043,113.7246 C6,153.7566 58.1646,201.4356 96.0137,228.6836 " fill="none" id="{}API-backto-nodeMCU" style="stroke:#454645;stroke-width:1.0;"/><polygon fill="#454645" points="255.148,30.1926,246.0384,26.4488,250.15,30.3341,246.2648,34.4456,255.148,30.1926" style="stroke:#454645;stroke-width:1.0;"/><text fill="#000000" font-family="sans-serif" font-size="13" lengthAdjust="spacing" textLength="124" x="36.1043" y="126.7915">HTTP POST request</text></g><!--link {}API to nodeMCU--><g id="link_{}API_nodeMCU"><path d="M274.781,53.0296 C244.81,93.9846 181.159,180.9606 149.221,224.6016 " fill="none" id="{}API-to-nodeMCU" style="stroke:#454645;stroke-width:1.0;"/><polygon fill="#454645" points="146.232,228.6876,154.7746,223.7862,149.1845,224.6524,148.3183,219.0623,146.232,228.6876" style="stroke:#454645;stroke-width:1.0;"/><text fill="#000000" font-family="sans-serif" font-size="13" lengthAdjust="spacing" textLength="103" x="231.104" y="126.7915">response status</text></g><!--link nodeMCU to WebServer--><g id="link_nodeMCU_WebServer"><path d="M183.93,251.7246 C226.3415,251.7246 286.5973,251.7246 337.46,251.7246 C362.8914,251.7246 385.9745,251.7246 403.3047,251.7246 C411.9698,251.7246 419.1967,251.7246 424.5598,251.7246 C425.2302,251.7246 425.8714,251.7246 426.4827,251.7246 C426.6356,251.7246 426.7865,251.7246 426.9356,251.7246 " fill="none" id="nodeMCU-to-WebServer" style="stroke:#454645;stroke-width:1.0;"/><polygon fill="#454645" points="426.9356,251.7246,417.9356,247.7246,421.9356,251.7246,417.9356,255.7246,426.9356,251.7246" style="stroke:#454645;stroke-width:1.0;"/><text fill="#000000" font-family="sans-serif" font-size="13" lengthAdjust="spacing" textLength="64" x="277.174" y="244.7915">send data</text></g><!--reverse link nodeMCU to Sensor--><g id="link_nodeMCU_Sensor"><path d="M117.5542,279.7616 C114.4929,287.6396 111.6544,296.3766 110.1043,304.7246 C106.3215,325.0976 107.6583,348.7146 109.599,365.7076 " fill="none" id="nodeMCU-backto-Sensor" style="stroke:#454645;stroke-width:1.0;"/><polygon fill="#454645" points="119.4794,274.9786,112.408,281.8339,117.6123,279.6169,119.8293,284.8213,119.4794,274.9786" style="stroke:#454645;stroke-width:1.0;"/><text fill="#000000" font-family="sans-serif" font-size="13" lengthAdjust="spacing" textLength="87" x="111.1043" y="317.7915">transmit data</text></g><!--link RaspberryPi to Laravel--><g id="link_RaspberryPi_Laravel"><path d="M524.394,274.8776 C520.61,298.4886 520.359,335.9026 523.642,361.3426 " fill="none" id="RaspberryPi-to-Laravel" style="stroke:#454645;stroke-width:1.0;"/><polygon fill="#454645" points="524.396,366.5806,527.0719,357.1022,523.6831,361.6317,519.1536,358.2429,524.396,366.5806" style="stroke:#454645;stroke-width:1.0;"/></g><!--reverse link RaspberryPi to Laravel--><g id="link_RaspberryPi_Laravel"><path d="M545.184,280.1166 C548.659,305.5606 548.392,342.9736 544.384,366.5806 " fill="none" id="RaspberryPi-backto-Laravel" style="stroke:#454645;stroke-width:1.0;"/><polygon fill="#454645" points="544.386,274.8776,541.7868,284.3773,545.1389,279.8206,549.6956,283.1727,544.386,274.8776" style="stroke:#454645;stroke-width:1.0;"/></g><!--link Laravel to MySQL--><g id="link_Laravel_MySQL"><path d="M523.927,412.9216 C520.739,432.8336 520.514,462.1016 523.252,483.3349 " fill="none" id="Laravel-to-MySQL" style="stroke:#454645;stroke-width:1.0;"/><polygon fill="#454645" points="524.012,488.5494,526.672,479.0666,523.2908,483.6017,518.7556,480.2205,524.012,488.5494" style="stroke:#454645;stroke-width:1.0;"/></g><!--reverse link Laravel to MySQL--><g id="link_Laravel_MySQL"><path d="M545.634,417.9036 C548.517,439.2996 548.236,468.7196 544.791,488.5494 " fill="none" id="Laravel-backto-MySQL" style="stroke:#454645;stroke-width:1.0;"/><polygon fill="#454645" points="544.88,412.9216,542.2723,422.419,545.6285,417.8653,550.1822,421.2214,544.88,412.9216" style="stroke:#454645;stroke-width:1.0;"/></g><!--SRC=[PL79JiCm4BtxAuRsN3uWI4Y82w0keMd5sQcdZINN3kD9KLJrtt7YR0KVVB3Vl7dB0nTuHhZedAHbSJ2kKZ2xtbxIzndCZJuLd9iAXJom8zXx966TGcYkrUjUe6NDDMHelICXZYG3snVc6T85AHAS2Eideoq-AkaBLDT8iPM-p96eJdLyM4gI5pGm9rH2IPQvz0YhEljSJgNSnC0F2-L-xEAv5GO9AErB8sjeXaNx5lv6T0A4tnLwZe0fJrK6PEyxWIroHHO-iiqwpFZIsQ3aIEuyY3muo-IC2O7qOmkwsnPeF4kkl11TMksQkprlkrqAwIRRzSf6iWROpoMZY7-KuL2JpH-d7gtgRCPoEeyZ9OV6_LdtOKpg66Bjp8hUTAIO5ZVyT1DjMo9s5j4TuXS0]--></g></svg>